<svg xmlns="http://www.w3.org/2000/svg" viewBox="0 0 640 640" fill="none">
  <rect width="640" height="640" fill="#1e1e2e"/> <!-- fond Catppuccin Mocha -->
  <path fill="#cba6f7" d="M320 400C394.6 400 458.4 353.6 484 288L488 288C501.3 288 512 277.3 512 264L512 184C512 170.7 501.3 160 488 160L484 160C458.4 94.4 394.6 48 320 48C245.4 48 181.6 94.4 156 160L152 160C138.7 160 128 170.7 128 184L128 264C128 277.3 138.7 288 152 288L156 288C181.6 353.6 245.4 400 320 400zM304 144L336 144C389 144 432 187 432 240C432 293 389 336 336 336L304 336C251 336 208 293 208 240C208 187 251 144 304 144zM112 548.6C112 563.7 124.3 576 139.4 576L192 576L192 528C192 510.3 206.3 496 224 496L416 496C433.7 496 448 510.3 448 528L448 576L500.6 576C515.7 576 528 563.7 528 548.6C528 488.8 496.1 436.4 448.4 407.6C412 433.1 367.8 448 320 448C272.2 448 228 433.1 191.6 407.6C143.9 436.4 112 488.8 112 548.6z"/>
</svg>

